<svg xmlns="http://www.w3.org/2000/svg" xmlns:xlink="http://www.w3.org/1999/xlink" id="visual" viewBox="0 0 1400 1000" width="1400" height="1000" version="1.1">
<path d="M501 1000L519 1000L519 833L463 833L463 667L437 667L437 500L372 500L372 333L440 333L440 167L513 167L513 0L1400 0L1400 167L1400 167L1400 333L1400 333L1400 500L1400 500L1400 667L1400 667L1400 833L1400 833L1400 1000L1400 1000Z" fill="#004172"/>
<path d="M538 1000L646 1000L646 833L676 833L676 667L688 667L688 500L621 500L621 333L552 333L552 167L778 167L778 0L1400 0L1400 167L1400 167L1400 333L1400 333L1400 500L1400 500L1400 667L1400 667L1400 833L1400 833L1400 1000L1400 1000Z" fill="#0a4f81"/>
<path d="M782 1000L550 1000L550 833L670 833L670 667L667 667L667 500L666 500L666 333L552 333L552 167L648 167L648 0L1400 0L1400 167L1400 167L1400 333L1400 333L1400 500L1400 500L1400 667L1400 667L1400 833L1400 833L1400 1000L1400 1000Z" fill="#155d8f"/>
<path d="M834 1000L780 1000L780 833L724 833L724 667L907 667L907 500L900 500L900 333L760 333L760 167L866 167L866 0L1400 0L1400 167L1400 167L1400 333L1400 333L1400 500L1400 500L1400 667L1400 667L1400 833L1400 833L1400 1000L1400 1000Z" fill="#1f6b9e"/>
<path d="M774 1000L783 1000L783 833L825 833L825 667L881 667L881 500L957 500L957 333L875 333L875 167L842 167L842 0L1400 0L1400 167L1400 167L1400 333L1400 333L1400 500L1400 500L1400 667L1400 667L1400 833L1400 833L1400 1000L1400 1000Z" fill="#287aad"/>
<path d="M832 1000L1049 1000L1049 833L862 833L862 667L863 667L863 500L928 500L928 333L900 333L900 167L844 167L844 0L1400 0L1400 167L1400 167L1400 333L1400 333L1400 500L1400 500L1400 667L1400 667L1400 833L1400 833L1400 1000L1400 1000Z" fill="#3289bb"/>
<path d="M1107 1000L1046 1000L1046 833L1026 833L1026 667L978 667L978 500L1008 500L1008 333L977 333L977 167L1048 167L1048 0L1400 0L1400 167L1400 167L1400 333L1400 333L1400 500L1400 500L1400 667L1400 667L1400 833L1400 833L1400 1000L1400 1000Z" fill="#3b98ca"/>
<path d="M1037 1000L1093 1000L1093 833L1191 833L1191 667L1031 667L1031 500L1149 500L1149 333L1125 333L1125 167L1038 167L1038 0L1400 0L1400 167L1400 167L1400 333L1400 333L1400 500L1400 500L1400 667L1400 667L1400 833L1400 833L1400 1000L1400 1000Z" fill="#45a7d8"/>
<path d="M1248 1000L1212 1000L1212 833L1126 833L1126 667L1181 667L1181 500L1150 500L1150 333L1230 333L1230 167L1205 167L1205 0L1400 0L1400 167L1400 167L1400 333L1400 333L1400 500L1400 500L1400 667L1400 667L1400 833L1400 833L1400 1000L1400 1000Z" fill="#4fb7e7"/>
<path d="M1314 1000L1306 1000L1306 833L1230 833L1230 667L1288 667L1288 500L1274 500L1274 333L1282 333L1282 167L1279 167L1279 0L1400 0L1400 167L1400 167L1400 333L1400 333L1400 500L1400 500L1400 667L1400 667L1400 833L1400 833L1400 1000L1400 1000Z" fill="#5ac7f5"/>
</svg>