<svg xmlns="http://www.w3.org/2000/svg" xmlns:xlink="http://www.w3.org/1999/xlink" id="visual" viewBox="0 0 1400 1000" width="1400" height="1000" version="1.1"><path d="M0 268L140 268L140 219L280 219L280 255L420 255L420 229L560 229L560 309L700 309L700 302L840 302L840 177L980 177L980 170L1120 170L1120 200L1260 200L1260 272L1400 272L1400 180L1400 0L1400 0L1260 0L1260 0L1120 0L1120 0L980 0L980 0L840 0L840 0L700 0L700 0L560 0L560 0L420 0L420 0L280 0L280 0L140 0L140 0L0 0Z" fill="#5ac7f5"/><path d="M0 233L140 233L140 195L280 195L280 163L420 163L420 254L560 254L560 149L700 149L700 151L840 151L840 251L980 251L980 215L1120 215L1120 174L1260 174L1260 245L1400 245L1400 264L1400 0L1400 0L1260 0L1260 0L1120 0L1120 0L980 0L980 0L840 0L840 0L700 0L700 0L560 0L560 0L420 0L420 0L280 0L280 0L140 0L140 0L0 0Z" fill="#47aadb"/><path d="M0 219L140 219L140 199L280 199L280 111L420 111L420 128L560 128L560 224L700 224L700 173L840 173L840 205L980 205L980 175L1120 175L1120 163L1260 163L1260 140L1400 140L1400 160L1400 0L1400 0L1260 0L1260 0L1120 0L1120 0L980 0L980 0L840 0L840 0L700 0L700 0L560 0L560 0L420 0L420 0L280 0L280 0L140 0L140 0L0 0Z" fill="#358fc1"/><path d="M0 119L140 119L140 142L280 142L280 164L420 164L420 113L560 113L560 119L700 119L700 86L840 86L840 84L980 84L980 149L1120 149L1120 160L1260 160L1260 125L1400 125L1400 94L1400 0L1400 0L1260 0L1260 0L1120 0L1120 0L980 0L980 0L840 0L840 0L700 0L700 0L560 0L560 0L420 0L420 0L280 0L280 0L140 0L140 0L0 0Z" fill="#2574a7"/><path d="M0 87L140 87L140 121L280 121L280 127L420 127L420 64L560 64L560 80L700 80L700 108L840 108L840 113L980 113L980 119L1120 119L1120 62L1260 62L1260 55L1400 55L1400 67L1400 0L1400 0L1260 0L1260 0L1120 0L1120 0L980 0L980 0L840 0L840 0L700 0L700 0L560 0L560 0L420 0L420 0L280 0L280 0L140 0L140 0L0 0Z" fill="#135a8c"/><path d="M0 45L140 45L140 65L280 65L280 78L420 78L420 53L560 53L560 55L700 55L700 31L840 31L840 51L980 51L980 44L1120 44L1120 65L1260 65L1260 56L1400 56L1400 43L1400 0L1400 0L1260 0L1260 0L1120 0L1120 0L980 0L980 0L840 0L840 0L700 0L700 0L560 0L560 0L420 0L420 0L280 0L280 0L140 0L140 0L0 0Z" fill="#004172"/></svg>