<svg xmlns="http://www.w3.org/2000/svg" xmlns:xlink="http://www.w3.org/1999/xlink" id="visual" viewBox="0 0 1300 1000" width="1300" height="1000" version="1.1">
<path d="M584 0L512 0L512 143L412 143L412 286L564 286L564 429L629 429L629 571L563 571L563 714L659 714L659 857L735 857L735 1000L0 1000L0 857L0 857L0 714L0 714L0 571L0 571L0 429L0 429L0 286L0 286L0 143L0 143L0 0L0 0Z" fill="#009fad"/>
<path d="M436 0L349 0L349 143L381 143L381 286L472 286L472 429L485 429L485 571L322 571L322 714L460 714L460 857L390 857L390 1000L0 1000L0 857L0 857L0 714L0 714L0 571L0 571L0 429L0 429L0 286L0 286L0 143L0 143L0 0L0 0Z" fill="#007d88"/>
<path d="M256 0L157 0L157 143L120 143L120 286L220 286L220 429L197 429L197 571L185 571L185 714L296 714L296 857L201 857L201 1000L0 1000L0 857L0 857L0 714L0 714L0 571L0 571L0 429L0 429L0 286L0 286L0 143L0 143L0 0L0 0Z" fill="#005c65"/>
</svg>