<svg xmlns="http://www.w3.org/2000/svg" xmlns:xlink="http://www.w3.org/1999/xlink" id="visual" viewBox="0 0 1400 1000" width="1400" height="1000" version="1.1">
<path d="M717 0L605 0L605 167L786 167L786 333L636 333L636 500L794 500L794 667L877 667L877 833L837 833L837 1000L0 1000L0 833L0 833L0 667L0 667L0 500L0 500L0 333L0 333L0 167L0 167L0 0L0 0Z" fill="#e1764c"/>
<path d="M575 0L725 0L725 167L675 167L675 333L596 333L596 500L690 500L690 667L691 667L691 833L616 833L616 1000L0 1000L0 833L0 833L0 667L0 667L0 500L0 500L0 333L0 333L0 167L0 167L0 0L0 0Z" fill="#d86d43"/>
<path d="M577 0L607 0L607 167L590 167L590 333L506 333L506 500L445 500L445 667L417 667L417 833L521 833L521 1000L0 1000L0 833L0 833L0 667L0 667L0 500L0 500L0 333L0 333L0 167L0 167L0 0L0 0Z" fill="#cf643a"/>
<path d="M378 0L451 0L451 167L426 167L426 333L435 333L435 500L321 500L321 667L312 667L312 833L450 833L450 1000L0 1000L0 833L0 833L0 667L0 667L0 500L0 500L0 333L0 333L0 167L0 167L0 0L0 0Z" fill="#c55a30"/>
<path d="M260 0L326 0L326 167L175 167L175 333L186 333L186 500L195 500L195 667L280 667L280 833L180 833L180 1000L0 1000L0 833L0 833L0 667L0 667L0 500L0 500L0 333L0 333L0 167L0 167L0 0L0 0Z" fill="#bc5127"/>
<path d="M98 0L117 0L117 167L170 167L170 333L216 333L216 500L191 500L191 667L115 667L115 833L202 833L202 1000L0 1000L0 833L0 833L0 667L0 667L0 500L0 500L0 333L0 333L0 167L0 167L0 0L0 0Z" fill="#b2481e"/>
</svg>