<svg xmlns="http://www.w3.org/2000/svg" xmlns:xlink="http://www.w3.org/1999/xlink" id="visual" viewBox="0 0 1400 1000" width="1400" height="1000" version="1.1">
<path d="M0 494L156 494L156 428L311 428L311 508L467 508L467 508L622 508L622 459L778 459L778 449L933 449L933 495L1089 495L1089 413L1244 413L1244 483L1400 483L1400 391L1400 1001L1400 1001L1244 1001L1244 1001L1089 1001L1089 1001L933 1001L933 1001L778 1001L778 1001L622 1001L622 1001L467 1001L467 1001L311 1001L311 1001L156 1001L156 1001L0 1001Z" fill="#6d238b"/>
<path d="M0 570L156 570L156 545L311 545L311 607L467 607L467 528L622 528L622 547L778 547L778 516L933 516L933 567L1089 567L1089 569L1244 569L1244 581L1400 581L1400 564L1400 1001L1400 1001L1244 1001L1244 1001L1089 1001L1089 1001L933 1001L933 1001L778 1001L778 1001L622 1001L622 1001L467 1001L467 1001L311 1001L311 1001L156 1001L156 1001L0 1001Z" fill="#7e29a0"/>
<path d="M0 693L156 693L156 647L311 647L311 664L467 664L467 703L622 703L622 734L778 734L778 704L933 704L933 723L1089 723L1089 694L1244 694L1244 659L1400 659L1400 668L1400 1001L1400 1001L1244 1001L1244 1001L1089 1001L1089 1001L933 1001L933 1001L778 1001L778 1001L622 1001L622 1001L467 1001L467 1001L311 1001L311 1001L156 1001L156 1001L0 1001Z" fill="#902fb6"/>
<path d="M0 850L156 850L156 792L311 792L311 830L467 830L467 834L622 834L622 791L778 791L778 819L933 819L933 795L1089 795L1089 830L1244 830L1244 843L1400 843L1400 838L1400 1001L1400 1001L1244 1001L1244 1001L1089 1001L1089 1001L933 1001L933 1001L778 1001L778 1001L622 1001L622 1001L467 1001L467 1001L311 1001L311 1001L156 1001L156 1001L0 1001Z" fill="#a235cd"/>
</svg>