<svg xmlns="http://www.w3.org/2000/svg" xmlns:xlink="http://www.w3.org/1999/xlink" id="visual" viewBox="0 0 1300 1000" width="1300" height="1000" version="1.1">
<path d="M854 1000L558 1000L558 857L746 857L746 714L567 714L567 571L660 571L660 429L599 429L599 286L802 286L802 143L668 143L668 0L1300 0L1300 143L1300 143L1300 286L1300 286L1300 429L1300 429L1300 571L1300 571L1300 714L1300 714L1300 857L1300 857L1300 1000L1300 1000Z" fill="#e9e9e9"/>
<path d="M822 1000L776 1000L776 857L723 857L723 714L789 714L789 571L943 571L943 429L762 429L762 286L667 286L667 143L939 143L939 0L1300 0L1300 143L1300 143L1300 286L1300 286L1300 429L1300 429L1300 571L1300 571L1300 714L1300 714L1300 857L1300 857L1300 1000L1300 1000Z" fill="#e2e2e2"/>
<path d="M785 1000L818 1000L818 857L884 857L884 714L888 714L888 571L805 571L805 429L796 429L796 286L965 286L965 143L928 143L928 0L1300 0L1300 143L1300 143L1300 286L1300 286L1300 429L1300 429L1300 571L1300 571L1300 714L1300 714L1300 857L1300 857L1300 1000L1300 1000Z" fill="#dbdbdb"/>
<path d="M1009 1000L905 1000L905 857L1081 857L1081 714L936 714L936 571L1041 571L1041 429L910 429L910 286L1036 286L1036 143L992 143L992 0L1300 0L1300 143L1300 143L1300 286L1300 286L1300 429L1300 429L1300 571L1300 571L1300 714L1300 714L1300 857L1300 857L1300 1000L1300 1000Z" fill="#d5d5d5"/>
<path d="M1030 1000L1012 1000L1012 857L1037 857L1037 714L1142 714L1142 571L1158 571L1158 429L1000 429L1000 286L1084 286L1084 143L997 143L997 0L1300 0L1300 143L1300 143L1300 286L1300 286L1300 429L1300 429L1300 571L1300 571L1300 714L1300 714L1300 857L1300 857L1300 1000L1300 1000Z" fill="#cecece"/>
<path d="M1195 1000L1130 1000L1130 857L1172 857L1172 714L1134 714L1134 571L1107 571L1107 429L1163 429L1163 286L1202 286L1202 143L1159 143L1159 0L1300 0L1300 143L1300 143L1300 286L1300 286L1300 429L1300 429L1300 571L1300 571L1300 714L1300 714L1300 857L1300 857L1300 1000L1300 1000Z" fill="#c7c7c7"/>
</svg>